<svg width="29" height="19" viewBox="0 0 29 19" fill="none" xmlns="http://www.w3.org/2000/svg">
<path fill-rule="evenodd" clip-rule="evenodd" d="M0 0H29V19H0V0Z" fill="white" fill-opacity="0.5"/>
<path fill-rule="evenodd" clip-rule="evenodd" d="M0.979431 1.1889H27.8408V5.18567H0.979431V1.1889Z" fill="#0061B2"/>
<path fill-rule="evenodd" clip-rule="evenodd" d="M0.979431 13.8192H27.8408V17.816H0.979431V13.8192Z" fill="#FDB827"/>
<path fill-rule="evenodd" clip-rule="evenodd" d="M5.44474 6.20239L5.44504 6.20428H4.34085V6.40118V6.40181C5.2026 6.43066 5.45989 6.85745 5.55513 7.35428L6.06321 12.6577H7.73516L11.3073 6.20239H9.63534L7.48842 10.0823L7.11668 6.20239H5.44474Z" fill="#0061B2"/>
<path fill-rule="evenodd" clip-rule="evenodd" d="M12.1978 6.19855H13.8205L11.8304 12.6602H10.2076L12.1978 6.19855Z" fill="#0061B2"/>
<path fill-rule="evenodd" clip-rule="evenodd" d="M21.1381 6.32736L17.9998 12.6602H19.7604L20.2183 11.6933H22.262L22.3321 12.6602H23.9548L23.4957 6.32736C22.7098 6.32736 21.924 6.32736 21.1381 6.32736ZM21.9908 7.95251L22.185 10.63H20.7222L21.9908 7.95251Z" fill="#0061B2"/>
<path d="M14.2185 7.84215C14.462 6.81754 15.2613 6.11798 16.622 6.11798C17.8965 6.11798 18.8417 6.9559 18.8417 6.9559L17.8773 8.0194C17.8773 8.0194 17.1644 7.43931 16.7444 7.43931C16.1892 7.43931 15.9384 7.65272 15.8872 8.00329C15.7849 8.70231 18.1512 9.13012 18.0763 10.7587C18.0263 11.8464 16.9568 12.9019 15.7341 12.9019C13.9005 12.9019 12.9938 12.1284 12.9938 12.1284L13.8205 10.8877C13.8205 10.8877 14.6491 11.5863 15.4279 11.5483C15.9533 11.5227 16.3583 11.3107 16.3311 10.936C16.2695 10.0866 13.7778 9.6967 14.2185 7.84215V7.84215Z" fill="#0061B2"/>
<path d="M24.1469 6.32715C24.0902 6.32715 24.0347 6.34245 23.9808 6.37306C23.9268 6.40367 23.8849 6.44772 23.8546 6.5047C23.8244 6.56168 23.8093 6.62104 23.8093 6.68289C23.8093 6.74411 23.8242 6.80296 23.854 6.85947C23.8838 6.91598 23.9255 6.95987 23.979 6.99111C24.0325 7.02234 24.0884 7.03798 24.1469 7.03798C24.2053 7.03798 24.2613 7.02234 24.3148 6.99111C24.3683 6.95987 24.4097 6.91598 24.4394 6.85947C24.4691 6.80296 24.4839 6.74411 24.4839 6.68289C24.4839 6.62104 24.4689 6.56168 24.4388 6.5047C24.4087 6.44772 24.3666 6.40367 24.3126 6.37306C24.2587 6.34245 24.2035 6.32715 24.1469 6.32715ZM24.1469 6.38622C24.194 6.38622 24.2398 6.39884 24.2848 6.42443C24.3298 6.45002 24.3649 6.48667 24.3901 6.53423C24.4153 6.5818 24.4279 6.6314 24.4279 6.68289C24.4279 6.73406 24.4157 6.783 24.391 6.82993C24.3663 6.87687 24.3313 6.91352 24.2866 6.93974C24.2419 6.96595 24.1955 6.97891 24.1469 6.97891C24.0983 6.97891 24.0515 6.96595 24.0068 6.93974C23.9621 6.91352 23.9273 6.87687 23.9024 6.82993C23.8775 6.783 23.8652 6.73406 23.8652 6.68289C23.8652 6.6314 23.8777 6.5818 23.903 6.53423C23.9284 6.48667 23.9635 6.45002 24.0083 6.42443C24.0532 6.39884 24.0995 6.38622 24.1469 6.38622V6.38622Z" fill="#0061B2"/>
<path d="M24.0071 6.48712V6.90606H24.0661V6.72807H24.1007C24.1214 6.72807 24.1371 6.73286 24.1478 6.74249C24.1634 6.75557 24.1841 6.78835 24.2095 6.84028L24.2417 6.90606H24.3134L24.2691 6.8241C24.2478 6.78524 24.23 6.7576 24.2153 6.74109C24.2075 6.73249 24.1972 6.72512 24.1843 6.71893C24.2157 6.71618 24.241 6.70329 24.26 6.68059C24.279 6.65789 24.2885 6.63135 24.2885 6.60074C24.2885 6.57907 24.2826 6.5588 24.2712 6.53953C24.2598 6.52027 24.2448 6.50647 24.2256 6.49873C24.2065 6.49099 24.1755 6.48712 24.1326 6.48712H24.0071V6.48712ZM24.0661 6.54411H24.1329C24.1617 6.54411 24.1816 6.54633 24.1922 6.55114C24.2028 6.55596 24.2111 6.5635 24.2171 6.5733C24.2231 6.5831 24.2259 6.59398 24.2259 6.60637C24.2259 6.62563 24.2198 6.6411 24.2074 6.6528C24.195 6.66449 24.1716 6.67039 24.1375 6.67039H24.0661V6.54411Z" fill="#0061B2"/>
<path d="M27.2585 16.8607C27.2018 16.8607 27.1463 16.876 27.0924 16.9066C27.0384 16.9372 26.9965 16.9813 26.9662 17.0382C26.936 17.0952 26.9209 17.1546 26.9209 17.2164C26.9209 17.2776 26.9358 17.3365 26.9656 17.393C26.9954 17.4495 27.0371 17.4934 27.0906 17.5246C27.1441 17.5559 27.2 17.5715 27.2585 17.5715C27.3169 17.5715 27.3729 17.5559 27.4264 17.5246C27.4799 17.4934 27.5213 17.4495 27.551 17.393C27.5807 17.3365 27.5955 17.2776 27.5955 17.2164C27.5955 17.1546 27.5805 17.0952 27.5504 17.0382C27.5203 16.9813 27.4782 16.9372 27.4242 16.9066C27.3703 16.876 27.3151 16.8607 27.2585 16.8607ZM27.2585 16.9198C27.3056 16.9198 27.3514 16.9324 27.3964 16.958C27.4414 16.9836 27.4765 17.0202 27.5017 17.0678C27.5269 17.1153 27.5395 17.1649 27.5395 17.2164C27.5395 17.2676 27.5273 17.3165 27.5026 17.3635C27.4779 17.4104 27.4429 17.4471 27.3982 17.4733C27.3535 17.4995 27.3071 17.5124 27.2585 17.5124C27.2099 17.5124 27.1631 17.4995 27.1184 17.4733C27.0737 17.4471 27.0389 17.4104 27.014 17.3635C26.9892 17.3165 26.9768 17.2676 26.9768 17.2164C26.9768 17.1649 26.9893 17.1153 27.0146 17.0678C27.04 17.0202 27.0751 16.9836 27.1199 16.958C27.1648 16.9324 27.2111 16.9198 27.2585 16.9198V16.9198Z" fill="#0061B2"/>
<path d="M27.1188 17.0207V17.4396H27.1777V17.2616H27.2124C27.233 17.2616 27.2487 17.2664 27.2595 17.276C27.275 17.2891 27.2957 17.3219 27.3211 17.3738L27.3534 17.4396H27.4251L27.3807 17.3576C27.3594 17.3188 27.3416 17.2911 27.3269 17.2746C27.3191 17.266 27.3088 17.2587 27.2959 17.2525C27.3274 17.2497 27.3526 17.2368 27.3716 17.2141C27.3906 17.1914 27.4001 17.1649 27.4001 17.1343C27.4001 17.1126 27.3942 17.0923 27.3828 17.0731C27.3714 17.0538 27.3564 17.04 27.3372 17.0323C27.3181 17.0245 27.2871 17.0207 27.2443 17.0207H27.1188V17.0207ZM27.1777 17.0776H27.2446C27.2733 17.0776 27.2932 17.0799 27.3038 17.0847C27.3145 17.0895 27.3227 17.097 27.3287 17.1068C27.3347 17.1166 27.3376 17.1275 27.3376 17.1399C27.3376 17.1592 27.3314 17.1746 27.319 17.1863C27.3066 17.198 27.2833 17.2039 27.2491 17.2039H27.1777V17.0776Z" fill="#0061B2"/>
</svg>
